# xmcd CD database file
#
# Track frame offsets:
#	182
#	23020
#	45420
#	69420
#	93420
#	110270
#	128245
#	147032
#	167262
#	190120
#	210020
#	229332
#
# Disc length: 3357 seconds
#
# Revision: 2
# Processed by: cddbd v1.5.2PL0 Copyright (c) Steve Scherf et al.
# Submitted via: CDex 1.70beta3
#
DISCID=8d0d1b0c
DTITLE=MilleFace - MilleFace
DYEAR=1996
DGENRE=JPop
TTITLE0=Psychedelic City
TTITLE1=瞳を閉じて
TTITLE2=Future World
TTITLE3=Tears Of Memory
TTITLE4=Mr.Ecstasy
TTITLE5=Tostalian Dance - instrumental
TTITLE6=でめきん
TTITLE7=大地の歌
TTITLE8=Mayfly
TTITLE9=Happy New Days
TTITLE10=空と森と - イオンのワルツ
TTITLE11=Time
EXTD=YEAR: 1996
EXTT0=
EXTT1=
EXTT2=
EXTT3=
EXTT4=
EXTT5=
EXTT6=
EXTT7=
EXTT8=
EXTT9=
EXTT10=
EXTT11=
PLAYORDER=
